<svg xmlns="http://www.w3.org/2000/svg" xmlns:xlink="http://www.w3.org/1999/xlink" width="1472" zoomAndPan="magnify" viewBox="0 0 1104 299.999988" height="400" preserveAspectRatio="xMidYMid meet" version="1.0"><defs><g/><clipPath id="9635792a30"><path d="M 5.683594 70 L 103.933594 70 L 103.933594 230.222656 L 5.683594 230.222656 Z M 5.683594 70 " clip-rule="nonzero"/></clipPath></defs><g clip-path="url(#9635792a30)"><path fill="#6259ff" d="M 102.148438 147.933594 L 25.765625 71.582031 C 24.464844 70.246094 22.316406 70.246094 20.980469 71.582031 L 6.667969 85.898438 C 5.367188 87.234375 5.367188 89.34375 6.667969 90.679688 L 66.347656 150.359375 L 6.667969 210.039062 C 5.367188 211.375 5.367188 213.488281 6.667969 214.824219 L 20.980469 229.136719 C 22.316406 230.4375 24.464844 230.4375 25.765625 229.136719 L 102.148438 152.714844 C 103.484375 151.414062 103.484375 149.304688 102.148438 147.933594 Z M 102.148438 147.933594 " fill-opacity="1" fill-rule="nonzero"/></g><g fill="#6259ff" fill-opacity="1"><g transform="translate(147.851889, 216.490207)"><g><path d="M 10.734375 -128.484375 L 37.140625 -128.484375 L 37.140625 -96.8125 C 37.140625 -95.050781 37.050781 -93.171875 36.875 -91.171875 C 36.695312 -89.179688 36.488281 -87.363281 36.25 -85.71875 C 36.019531 -84.070312 35.847656 -82.722656 35.734375 -81.671875 C 35.617188 -80.617188 35.5625 -80.09375 35.5625 -80.09375 L 37.484375 -80.09375 C 38.304688 -85.957031 40.890625 -90.5 45.234375 -93.71875 C 49.578125 -96.945312 55.269531 -98.5625 62.3125 -98.5625 C 72.164062 -98.5625 79.9375 -95.332031 85.625 -88.875 C 91.320312 -82.425781 94.171875 -73.628906 94.171875 -62.484375 L 94.171875 0 L 67.765625 0 L 67.765625 -59.84375 C 67.765625 -64.769531 66.382812 -68.640625 63.625 -71.453125 C 60.875 -74.273438 57.148438 -75.6875 52.453125 -75.6875 C 47.753906 -75.6875 44.023438 -74.273438 41.265625 -71.453125 C 38.515625 -68.640625 37.140625 -64.769531 37.140625 -59.84375 L 37.140625 0 L 10.734375 0 Z M 10.734375 -128.484375 "/></g></g></g><g fill="#6259ff" fill-opacity="1"><g transform="translate(253.454206, 216.490207)"><g><path d="M 32.921875 -96.8125 L 49.8125 -48.046875 C 50.394531 -46.285156 50.921875 -44.289062 51.390625 -42.0625 C 51.859375 -39.832031 52.210938 -37.722656 52.453125 -35.734375 C 52.679688 -33.265625 52.914062 -30.859375 53.15625 -28.515625 L 54.734375 -28.515625 C 54.859375 -30.859375 55.035156 -33.265625 55.265625 -35.734375 C 55.503906 -37.722656 55.796875 -39.832031 56.140625 -42.0625 C 56.492188 -44.289062 56.96875 -46.285156 57.5625 -48.046875 L 73.578125 -96.8125 L 101.203125 -96.8125 L 55.96875 29.046875 L 28.34375 29.046875 L 41.546875 -4.40625 L 4.40625 -96.8125 Z M 32.921875 -96.8125 "/></g></g></g><g fill="#6259ff" fill-opacity="1"><g transform="translate(359.056523, 216.490207)"><g><path d="M 36.609375 -96.8125 L 36.609375 -80.09375 L 38.375 -80.09375 C 39.3125 -85.84375 41.976562 -90.359375 46.375 -93.640625 C 50.78125 -96.921875 56.441406 -98.5625 63.359375 -98.5625 C 68.523438 -98.5625 73.160156 -97.679688 77.265625 -95.921875 C 81.378906 -94.160156 84.929688 -91.640625 87.921875 -88.359375 C 90.910156 -85.078125 93.195312 -81.085938 94.78125 -76.390625 C 96.363281 -71.691406 97.15625 -66.46875 97.15625 -60.71875 L 97.15625 -36.96875 C 97.15625 -30.976562 96.363281 -25.609375 94.78125 -20.859375 C 93.195312 -16.109375 90.910156 -12.0625 87.921875 -8.71875 C 84.929688 -5.375 81.378906 -2.789062 77.265625 -0.96875 C 73.160156 0.851562 68.523438 1.765625 63.359375 1.765625 C 56.441406 1.765625 50.78125 0.125 46.375 -3.15625 C 41.976562 -6.445312 39.3125 -11.023438 38.375 -16.890625 L 36.609375 -16.890625 C 36.722656 -15.953125 36.894531 -13.835938 37.125 -10.546875 C 37.363281 -7.265625 37.484375 -3.75 37.484375 0 L 37.484375 29.046875 L 11.09375 29.046875 L 11.09375 -96.8125 Z M 37.484375 -36.96875 C 37.484375 -32.382812 38.953125 -28.625 41.890625 -25.6875 C 44.828125 -22.757812 48.9375 -21.296875 54.21875 -21.296875 C 59.5 -21.296875 63.578125 -22.820312 66.453125 -25.875 C 69.328125 -28.925781 70.765625 -32.914062 70.765625 -37.84375 L 70.765625 -59.84375 C 70.765625 -64.769531 69.265625 -68.640625 66.265625 -71.453125 C 63.273438 -74.273438 59.257812 -75.6875 54.21875 -75.6875 C 49.164062 -75.6875 45.113281 -74.25 42.0625 -71.375 C 39.007812 -68.5 37.484375 -64.65625 37.484375 -59.84375 Z M 37.484375 -36.96875 "/></g></g></g><g fill="#6259ff" fill-opacity="1"><g transform="translate(464.65884, 216.490207)"><g><path d="M 52.796875 1.765625 C 46.109375 1.765625 40.035156 0.828125 34.578125 -1.046875 C 29.128906 -2.929688 24.46875 -5.546875 20.59375 -8.890625 C 16.71875 -12.234375 13.722656 -16.3125 11.609375 -21.125 C 9.503906 -25.9375 8.453125 -31.21875 8.453125 -36.96875 L 8.453125 -60.015625 C 8.453125 -65.890625 9.503906 -71.171875 11.609375 -75.859375 C 13.722656 -80.554688 16.71875 -84.601562 20.59375 -88 C 24.46875 -91.40625 29.128906 -94.015625 34.578125 -95.828125 C 40.035156 -97.648438 46.109375 -98.5625 52.796875 -98.5625 C 59.367188 -98.5625 65.351562 -97.625 70.75 -95.75 C 76.15625 -93.875 80.789062 -91.234375 84.65625 -87.828125 C 88.53125 -84.429688 91.523438 -80.351562 93.640625 -75.59375 C 95.753906 -70.84375 96.8125 -65.59375 96.8125 -59.84375 L 96.8125 -42.25 L 34.5 -42.25 L 34.5 -36.96875 C 34.5 -31.09375 36.082031 -26.539062 39.25 -23.3125 C 42.414062 -20.09375 46.929688 -18.484375 52.796875 -18.484375 C 57.140625 -18.484375 60.835938 -19.1875 63.890625 -20.59375 C 66.941406 -22 68.992188 -23.9375 70.046875 -26.40625 L 95.921875 -26.40625 C 94.867188 -22.175781 93.019531 -18.332031 90.375 -14.875 C 87.738281 -11.414062 84.539062 -8.453125 80.78125 -5.984375 C 77.03125 -3.515625 72.78125 -1.601562 68.03125 -0.25 C 63.28125 1.09375 58.203125 1.765625 52.796875 1.765625 Z M 71.28125 -58.078125 L 71.28125 -59.84375 C 71.28125 -65.707031 69.664062 -70.253906 66.4375 -73.484375 C 63.21875 -76.710938 58.671875 -78.328125 52.796875 -78.328125 C 47.054688 -78.328125 42.570312 -76.710938 39.34375 -73.484375 C 36.113281 -70.253906 34.5 -65.765625 34.5 -60.015625 L 34.5 -58.078125 Z M 71.28125 -58.078125 "/></g></g></g><g fill="#6259ff" fill-opacity="1"><g transform="translate(570.261158, 216.490207)"><g><path d="M 8.453125 -60.71875 C 8.453125 -66.46875 9.242188 -71.691406 10.828125 -76.390625 C 12.410156 -81.085938 14.695312 -85.078125 17.6875 -88.359375 C 20.675781 -91.640625 24.253906 -94.160156 28.421875 -95.921875 C 32.585938 -97.679688 37.195312 -98.5625 42.25 -98.5625 C 49.164062 -98.5625 54.820312 -96.921875 59.21875 -93.640625 C 63.625 -90.359375 66.296875 -85.84375 67.234375 -80.09375 L 69 -80.09375 L 69 -96.8125 L 94.515625 -96.8125 L 94.515625 29.046875 L 68.125 29.046875 L 68.125 0 C 68.125 -3.75 68.238281 -7.265625 68.46875 -10.546875 C 68.707031 -13.835938 68.882812 -15.953125 69 -16.890625 L 67.234375 -16.890625 C 66.296875 -11.023438 63.625 -6.445312 59.21875 -3.15625 C 54.820312 0.125 49.164062 1.765625 42.25 1.765625 C 37.195312 1.765625 32.585938 0.851562 28.421875 -0.96875 C 24.253906 -2.789062 20.675781 -5.375 17.6875 -8.71875 C 14.695312 -12.0625 12.410156 -16.109375 10.828125 -20.859375 C 9.242188 -25.609375 8.453125 -30.976562 8.453125 -36.96875 Z M 51.390625 -75.6875 C 46.347656 -75.6875 42.328125 -74.273438 39.328125 -71.453125 C 36.335938 -68.640625 34.84375 -64.769531 34.84375 -59.84375 L 34.84375 -37.84375 C 34.84375 -32.914062 36.28125 -28.925781 39.15625 -25.875 C 42.03125 -22.820312 46.109375 -21.296875 51.390625 -21.296875 C 56.671875 -21.296875 60.78125 -22.757812 63.71875 -25.6875 C 66.65625 -28.625 68.125 -32.382812 68.125 -36.96875 L 68.125 -59.84375 C 68.125 -64.65625 66.597656 -68.5 63.546875 -71.375 C 60.492188 -74.25 56.441406 -75.6875 51.390625 -75.6875 Z M 51.390625 -75.6875 "/></g></g></g><g fill="#6259ff" fill-opacity="1"><g transform="translate(675.863475, 216.490207)"><g><path d="M 11.4375 -96.8125 L 37.84375 -96.8125 L 37.84375 -37.84375 C 37.84375 -26.695312 42.828125 -21.125 52.796875 -21.125 C 62.773438 -21.125 67.765625 -26.695312 67.765625 -37.84375 L 67.765625 -96.8125 L 94.171875 -96.8125 L 94.171875 -37.671875 C 94.171875 -25.234375 90.503906 -15.550781 83.171875 -8.625 C 75.835938 -1.695312 65.710938 1.765625 52.796875 1.765625 C 39.660156 1.765625 29.484375 -1.722656 22.265625 -8.703125 C 15.046875 -15.691406 11.4375 -25.347656 11.4375 -37.671875 Z M 11.4375 -96.8125 "/></g></g></g><g fill="#6259ff" fill-opacity="1"><g transform="translate(781.465792, 216.490207)"><g><path d="M 52.796875 1.765625 C 46.109375 1.765625 40.035156 0.828125 34.578125 -1.046875 C 29.128906 -2.929688 24.46875 -5.546875 20.59375 -8.890625 C 16.71875 -12.234375 13.722656 -16.3125 11.609375 -21.125 C 9.503906 -25.9375 8.453125 -31.21875 8.453125 -36.96875 L 8.453125 -60.015625 C 8.453125 -65.890625 9.503906 -71.171875 11.609375 -75.859375 C 13.722656 -80.554688 16.71875 -84.601562 20.59375 -88 C 24.46875 -91.40625 29.128906 -94.015625 34.578125 -95.828125 C 40.035156 -97.648438 46.109375 -98.5625 52.796875 -98.5625 C 59.367188 -98.5625 65.351562 -97.625 70.75 -95.75 C 76.15625 -93.875 80.789062 -91.234375 84.65625 -87.828125 C 88.53125 -84.429688 91.523438 -80.351562 93.640625 -75.59375 C 95.753906 -70.84375 96.8125 -65.59375 96.8125 -59.84375 L 96.8125 -42.25 L 34.5 -42.25 L 34.5 -36.96875 C 34.5 -31.09375 36.082031 -26.539062 39.25 -23.3125 C 42.414062 -20.09375 46.929688 -18.484375 52.796875 -18.484375 C 57.140625 -18.484375 60.835938 -19.1875 63.890625 -20.59375 C 66.941406 -22 68.992188 -23.9375 70.046875 -26.40625 L 95.921875 -26.40625 C 94.867188 -22.175781 93.019531 -18.332031 90.375 -14.875 C 87.738281 -11.414062 84.539062 -8.453125 80.78125 -5.984375 C 77.03125 -3.515625 72.78125 -1.601562 68.03125 -0.25 C 63.28125 1.09375 58.203125 1.765625 52.796875 1.765625 Z M 71.28125 -58.078125 L 71.28125 -59.84375 C 71.28125 -65.707031 69.664062 -70.253906 66.4375 -73.484375 C 63.21875 -76.710938 58.671875 -78.328125 52.796875 -78.328125 C 47.054688 -78.328125 42.570312 -76.710938 39.34375 -73.484375 C 36.113281 -70.253906 34.5 -65.765625 34.5 -60.015625 L 34.5 -58.078125 Z M 71.28125 -58.078125 "/></g></g></g><g fill="#6259ff" fill-opacity="1"><g transform="translate(887.068109, 216.490207)"><g><path d="M 14.4375 -96.8125 L 39.421875 -96.8125 L 39.421875 -80.09375 L 41.1875 -80.09375 C 42.125 -86.070312 44.878906 -90.644531 49.453125 -93.8125 C 54.035156 -96.976562 60.082031 -98.5625 67.59375 -98.5625 C 78.269531 -98.5625 86.539062 -95.304688 92.40625 -88.796875 C 98.269531 -82.285156 101.203125 -73.222656 101.203125 -61.609375 L 101.203125 -53.6875 L 73.046875 -53.6875 L 73.046875 -59.84375 C 73.046875 -65.125 71.519531 -69.226562 68.46875 -72.15625 C 65.414062 -75.09375 61.25 -76.5625 55.96875 -76.5625 C 51.28125 -76.5625 47.582031 -75.066406 44.875 -72.078125 C 42.175781 -69.085938 40.828125 -65.007812 40.828125 -59.84375 L 40.828125 0 L 14.4375 0 Z M 14.4375 -96.8125 "/></g></g></g><g fill="#6259ff" fill-opacity="1"><g transform="translate(992.670426, 216.490207)"><g><path d="M 32.921875 -96.8125 L 49.8125 -48.046875 C 50.394531 -46.285156 50.921875 -44.289062 51.390625 -42.0625 C 51.859375 -39.832031 52.210938 -37.722656 52.453125 -35.734375 C 52.679688 -33.265625 52.914062 -30.859375 53.15625 -28.515625 L 54.734375 -28.515625 C 54.859375 -30.859375 55.035156 -33.265625 55.265625 -35.734375 C 55.503906 -37.722656 55.796875 -39.832031 56.140625 -42.0625 C 56.492188 -44.289062 56.96875 -46.285156 57.5625 -48.046875 L 73.578125 -96.8125 L 101.203125 -96.8125 L 55.96875 29.046875 L 28.34375 29.046875 L 41.546875 -4.40625 L 4.40625 -96.8125 Z M 32.921875 -96.8125 "/></g></g></g></svg>